<svg xmlns="http://www.w3.org/2000/svg" xmlns:xlink="http://www.w3.org/1999/xlink" width="112" height="111" viewBox="0 0 112 111"><defs><path id="pmsra" d="M238.129 9617.747c-.897 0-1.768.102-2.609.289l-10.175-17.624a11.973 11.973 0 0 0 3.167-8.122c0-6.627-5.391-12.02-12.02-12.02-6.628 0-12.021 5.393-12.021 12.02 0 3.13 1.203 5.982 3.169 8.122l-10.176 17.624a12.05 12.05 0 0 0-2.61-.29c-.896 0-1.768.103-2.608.29l-10.175-17.624a11.973 11.973 0 0 0 3.167-8.122c0-6.627-5.392-12.02-12.02-12.02-6.629 0-12.022 5.393-12.022 12.02 0 3.13 1.204 5.982 3.17 8.122l-10.176 17.624a12.05 12.05 0 0 0-2.61-.29c-6.629 0-12.02 5.394-12.02 12.02 0 6.629 5.391 12.022 12.02 12.022 6.628 0 12.021-5.393 12.021-12.021 0-3.128-1.201-5.98-3.169-8.12l10.176-17.624c.842.186 1.714.288 2.61.288.896 0 1.768-.102 2.61-.288L186 9621.646a11.972 11.972 0 0 0-3.167 8.12c0 6.629 5.392 12.022 12.02 12.022 6.628 0 12.022-5.393 12.022-12.021 0-3.128-1.202-5.98-3.17-8.12l10.176-17.624c.842.186 1.714.288 2.61.288.896 0 1.768-.102 2.61-.288l10.174 17.623a11.972 11.972 0 0 0-3.167 8.12c0 6.629 5.391 12.022 12.02 12.022 6.628 0 12.021-5.393 12.021-12.021 0-6.627-5.393-12.02-12.021-12.02"/><path id="pmsrb" d="M162.193 9683.6h-4.718v-12.958l-4.508 12.958h-3.583l-4.657-12.958v12.958h-4.717v-20.9h5.583l5.583 14.54 5.523-14.54h5.494z"/><path id="pmsrc" d="M165.72 9685.242h4.478c.03 1.373.836 2.418 2.837 2.418 1.91 0 2.836-.955 2.836-3.374v-2.984c-.806 1.552-2.478 2.448-4.747 2.448-1.97 0-3.225-.687-4-1.643-.897-1.104-1.105-2.507-1.105-4.567v-8.33h4.538v7.374c0 2.06.626 3.494 2.537 3.494 1.881 0 2.777-1.434 2.777-3.643v-7.225h4.568v14.838c0 4.866-2.269 6.986-7.285 6.986-5.314 0-7.434-2.359-7.434-5.792"/><path id="pmsrd" d="M194.59 9673.358c-.627-.149-1.015-.209-1.553-.209-2.568 0-4.21 1.284-4.21 4.837v5.613h-4.567v-14.39h4.567v2.329c.657-1.344 2.36-2.568 4.45-2.568.477 0 .895.06 1.313.239z"/><path id="pmsre" d="M199.515 9661.53c1.673 0 2.957 1.284 2.957 2.896 0 1.582-1.284 2.896-2.957 2.896a2.905 2.905 0 0 1-2.925-2.896c0-1.612 1.284-2.896 2.925-2.896zm-2.268 22.064h4.558v-14.39h-4.558z"/><path id="pmsrf" d="M204.89 9676.403c0-4.12 3.015-7.583 8.002-7.583 4.985 0 7.97 3.463 7.97 7.583s-2.985 7.584-7.97 7.584c-4.987 0-8.002-3.463-8.002-7.584m11.425 0c0-2-1.371-3.672-3.459-3.672-2.057 0-3.399 1.672-3.399 3.672 0 2.03 1.342 3.673 3.4 3.673 2.087 0 3.458-1.643 3.458-3.673"/><path id="pmsrg" d="M232.71 9683.6c-.687.12-1.673.239-3.075.239-2.12 0-5.076-.268-5.076-5.075v-6.15h-2.269v-3.404h2.269v-4.27h4.538v4.27h3.284v3.403h-3.284v5.135c0 2.15.836 2.448 2.09 2.448.388 0 1.104-.029 1.523-.09z"/><path id="pmsrh" d="M250.153 9669.209v14.39h-4.568v-2.03c-.717 1.314-2.389 2.388-4.598 2.388-3.821 0-6.807-3.254-6.807-7.553 0-4.3 2.986-7.554 6.807-7.554 2.12 0 3.822 1.015 4.598 2.419v-2.06zm-8.007 3.522c-2.057 0-3.428 1.702-3.428 3.673 0 2 1.371 3.673 3.428 3.673 2.058 0 3.429-1.673 3.429-3.673 0-1.97-1.371-3.673-3.429-3.673z"/></defs><g><g transform="translate(-139 -9580)"><g><use fill="#0077c8" xlink:href="#pmsra"/></g><g><g><use fill="#0077c8" xlink:href="#pmsrb"/></g><g><use fill="#0077c8" xlink:href="#pmsrc"/></g><g><use fill="#0077c8" xlink:href="#pmsrd"/></g><g><use fill="#0077c8" xlink:href="#pmsre"/></g><g><use fill="#0077c8" xlink:href="#pmsrf"/></g><g><use fill="#0077c8" xlink:href="#pmsrg"/></g><g><use fill="#0077c8" xlink:href="#pmsrh"/></g></g></g></g></svg>