<svg width="600" height="600" viewBox="0 0 600 600" fill="none" xmlns="http://www.w3.org/2000/svg">
<g clip-path="url(#clip0_1334_16301)">
<path d="M238.807 492.132C241.266 465.704 257.287 452.49 286.871 452.49H297.935C327.519 452.49 341.082 465.704 338.623 492.132L336.779 511.984C334.321 538.412 318.299 551.627 288.715 551.627H277.652C248.027 551.627 234.464 538.412 236.964 511.984L238.807 492.132ZM285.028 472.342C270.235 472.342 262.225 478.939 260.996 492.132L259.152 511.984C257.922 525.219 264.704 531.816 279.496 531.775H290.559C305.31 531.775 313.362 525.198 314.591 511.984L316.435 492.132C317.664 478.918 310.842 472.342 296.091 472.342H285.028Z" fill="#96A1AB"/>
<path d="M20.1225 551.627L24.4249 492.132C25.6541 478.898 33.6648 472.301 48.4569 472.342C63.208 472.342 70.0303 478.918 68.8011 492.132L64.4372 551.627H86.6253L91.2965 492.132C92.5258 478.898 100.516 472.301 115.267 472.342C130.018 472.383 136.8 478.98 135.611 492.132L131.309 551.627H153.497L157.799 492.132C160.258 465.704 146.695 452.49 117.111 452.49C104.916 451.715 92.8317 455.214 82.9375 462.385C76.1766 455.809 65.3592 452.49 50.6081 452.49C21.0649 452.49 5.04362 465.704 2.54412 492.132C2.54412 492.132 1.25693 504.284 0.0222718 529.882C-0.775473 546.421 20.1225 551.627 20.1225 551.627Z" fill="#96A1AB"/>
<path d="M212.721 452.551L205.697 551.626H183.509L188.868 474.493C189.097 471.687 189.911 468.867 191.258 466.212C192.606 463.556 194.458 461.121 196.698 459.06C198.938 457 201.518 455.358 204.276 454.238C207.033 453.117 209.909 452.543 212.721 452.551Z" fill="#96A1AB"/>
<path d="M386.872 472.342H419.632L421.23 452.49H388.716L391.482 422.681H384.783L367.88 440.075L361.242 511.984C358.784 538.412 372.326 551.626 401.869 551.626H413.363L414.961 532.02H403.836C389.269 532.02 382.57 525.567 383.492 512.783L386.872 472.342Z" fill="#96A1AB"/>
<path d="M475.638 452.048L468.614 551.123H446.426L451.785 473.989C452.014 471.183 452.828 468.364 454.175 465.708C455.523 463.052 457.375 460.618 459.615 458.557C461.855 456.496 464.435 454.854 467.193 453.734C469.95 452.614 472.826 452.04 475.638 452.048Z" fill="#96A1AB"/>
<path d="M538.685 551.627H555.095L556.939 531.775H540.529C525.777 531.775 518.955 525.198 520.184 511.984L522.028 492.132C523.258 478.918 531.309 472.342 546.06 472.342H557.124C571.916 472.342 578.697 478.939 577.468 492.132L573.78 531.775L569.539 569.758C568.832 576.332 570.483 582.944 574.198 588.415C577.913 593.886 583.45 597.859 589.822 599.628L599.717 492.132C602.176 465.704 588.613 452.49 559.029 452.49H547.966C518.381 452.49 502.36 465.704 499.902 492.132L498.058 511.984C495.558 538.412 509.101 551.627 538.685 551.627Z" fill="#96A1AB"/>
<path d="M354.582 370.538C358.1 370.538 361.584 369.845 364.834 368.499C368.084 367.153 371.038 365.179 373.525 362.692C376.013 360.204 377.987 357.251 379.333 354C380.679 350.75 381.372 347.266 381.372 343.748V112.382C381.431 108.87 380.775 105.383 379.445 102.132C378.115 98.8816 376.139 95.9349 373.636 93.4711C370.745 90.5662 367.229 88.3594 363.356 87.0188C359.483 85.6782 355.355 85.2391 351.286 85.735C344.612 86.9555 338.586 90.5052 334.284 95.7521C329.981 100.999 327.68 107.603 327.791 114.387V343.605C327.753 347.14 328.419 350.648 329.75 353.924C331.081 357.199 333.051 360.177 335.544 362.684C338.038 365.19 341.005 367.176 344.273 368.524C347.542 369.873 351.046 370.557 354.582 370.538Z" fill="#D3901A"/>
<path d="M463.75 370.538C470.855 370.538 477.669 367.716 482.694 362.692C487.718 357.667 490.54 350.853 490.54 343.748L491.4 28.5738C491.523 24.947 490.9 21.3336 489.569 17.9575C488.238 14.5815 486.228 11.5146 483.664 8.94705C479.925 5.16431 475.145 2.58001 469.932 1.52333C464.719 0.466648 459.31 0.985413 454.393 3.01355C449.476 5.04168 445.274 8.48739 442.323 12.9118C439.371 17.3362 437.803 22.539 437.819 27.8575L436.959 343.032C436.959 350.15 439.777 356.979 444.797 362.026C449.817 367.073 456.631 369.927 463.75 369.965V370.538Z" fill="#D3901A"/>
<path d="M576.501 230.286C583.176 229.065 589.201 225.515 593.503 220.269C597.806 215.022 600.107 208.418 599.996 201.633V189.026C600.005 185.225 599.204 181.466 597.648 177.997C596.091 174.529 593.815 171.432 590.969 168.912C588.123 166.391 584.774 164.505 581.143 163.379C577.512 162.253 573.683 161.912 569.91 162.38C563.236 163.6 557.21 167.15 552.908 172.397C548.605 177.644 546.304 184.248 546.415 191.032V203.782C546.38 207.586 547.164 211.352 548.714 214.826C550.264 218.299 552.544 221.398 555.398 223.913C558.252 226.427 561.614 228.297 565.255 229.397C568.897 230.497 572.732 230.8 576.501 230.286Z" fill="#96A1AB"/>
<path d="M573.061 370.538C580.18 370.538 587.009 367.72 592.056 362.7C597.103 357.68 599.958 350.866 599.995 343.748V308.792C600.011 305.274 599.321 301.788 597.968 298.54C596.615 295.293 594.625 292.349 592.116 289.882C588.369 286.149 583.602 283.608 578.413 282.579C573.225 281.551 567.849 282.081 562.961 284.104C558.074 286.126 553.895 289.55 550.95 293.943C548.005 298.337 546.427 303.503 546.414 308.792V343.605C546.414 350.699 549.212 357.506 554.201 362.549C559.191 367.592 565.968 370.463 573.061 370.538Z" fill="#96A1AB"/>
<path d="M26.7907 370.538C33.896 370.538 40.7103 367.716 45.7345 362.692C50.7587 357.668 53.5813 350.853 53.5813 343.748L54.4409 28.5739C54.5638 24.9471 53.9405 21.3337 52.6098 17.9576C51.279 14.5815 49.2691 11.5147 46.7046 8.94712C43.8267 6.01663 40.3167 3.78313 36.443 2.41746C32.5694 1.05178 28.4346 0.590112 24.3551 1.06776C17.6802 2.28823 11.655 5.83795 7.35237 11.0849C3.04974 16.3318 0.748926 22.9355 0.859593 29.72L2.69902e-09 343.605C-0.000100702 350.723 2.8179 357.552 7.83805 362.599C12.8582 367.646 19.6722 370.5 26.7907 370.538Z" fill="#96A1AB"/>
<path d="M136.102 370.538C143.196 370.5 149.988 367.666 155.004 362.65C160.02 357.634 162.855 350.842 162.893 343.748V112.668C162.859 105.696 160.123 99.009 155.26 94.0128C150.398 89.0165 143.787 86.1006 136.818 85.8782C129.675 85.8782 122.824 88.7158 117.773 93.7667C112.722 98.8176 109.884 105.668 109.884 112.811V343.605C109.808 350.648 112.523 357.434 117.435 362.481C122.348 367.528 129.06 370.425 136.102 370.538Z" fill="#96A1AB"/>
<path d="M245.271 370.538C248.801 370.557 252.3 369.878 255.567 368.54C258.834 367.202 261.804 365.232 264.307 362.743C266.81 360.253 268.796 357.293 270.152 354.034C271.507 350.774 272.205 347.279 272.204 343.748V214.813C272.193 211.024 271.377 207.281 269.812 203.83C268.246 200.379 265.967 197.299 263.123 194.795C260.28 192.29 256.938 190.417 253.317 189.299C249.696 188.181 245.879 187.844 242.119 188.31C235.364 189.361 229.234 192.864 224.899 198.15C220.565 203.435 218.33 210.133 218.623 216.962V343.748C218.623 350.867 221.441 357.696 226.461 362.743C231.481 367.789 238.295 370.644 245.414 370.681L245.271 370.538Z" fill="#D3901A"/>
</g>
<defs>
<clipPath id="clip0_1334_16301">
<rect width="600" height="600" fill="white"/>
</clipPath>
</defs>
</svg>
