<?xml version="1.0" encoding="utf-8"?>
<!-- Generator: Adobe Illustrator 16.0.0, SVG Export Plug-In . SVG Version: 6.00 Build 0)  -->
<!DOCTYPE svg PUBLIC "-//W3C//DTD SVG 1.1//EN" "http://www.w3.org/Graphics/SVG/1.1/DTD/svg11.dtd">
<svg version="1.1" id="Layer_1" xmlns="http://www.w3.org/2000/svg" xmlns:xlink="http://www.w3.org/1999/xlink" x="0px" y="0px"
	 width="1890px" height="700px" viewBox="0 0 1890 700" enable-background="new 0 0 1890 700" xml:space="preserve">
<g>
	<path fill="#00A2C5" d="M467.217,369.875c0,0-1.194,0-2.392,1.195c-1.207,0-1.207,0-2.409,0h-1.207
		c0,1.193-1.207,1.193-2.405,1.193c-1.202,0-2.4,0-3.599,0c0,0-1.202,0-2.409,0c-1.202,0-1.202,0-2.409,0h-1.198
		c0-1.193-1.206-1.193-2.4-1.193c0,0-1.198,0-1.198-1.195h-1.207c0,0-1.202,0-1.202-1.215h-1.236c0,0-1.207,0-1.207-1.193h-1.202
		c-15.645-10.834-15.645-34.904,0-45.739c1.202,0,1.202,0,1.202,0l1.207-1.198h1.203c0,0,0,0,1.207-1.203c0,0,0,0,1.198,0
		l1.207-1.203c1.193,0,1.193,0,1.193,0h1.203c1.202,0,1.202,0,1.202,0c1.202,0,1.202-1.207,2.409-1.207c1.202,0,2.405,0,2.405,0
		c1.202,0,2.396,0,3.599,0v1.207c1.207,0,2.409,0,2.409,0h1.202c0,0,1.207,0,2.409,0v1.203c1.203,0,1.203,0,2.396,1.203
		C488.882,330.157,488.882,360.24,467.217,369.875 M367.33,469.754V359.045h37.31c3.599,14.438,14.426,27.678,28.88,33.693
		C421.486,426.424,398.623,454.102,367.33,469.754z M314.38,486.602V242.291c15.64-4.81,27.677-15.644,33.693-30.086
		c39.707,14.442,69.792,45.731,85.445,84.243c-14.442,7.219-25.281,19.26-28.88,33.702h-51.751c-7.223,0-14.442,6.013-14.442,14.442
		v137.185C331.223,484.191,322.802,486.602,314.38,486.602z M259.013,481.779v-137.18c0-8.425-7.218-14.442-14.442-14.442h-54.156
		c-3.607-14.438-13.235-25.285-26.475-32.496c14.441-39.714,45.731-71.007,85.445-85.45c7.223,15.649,20.458,26.479,36.103,30.091
		v245.509C277.066,486.602,267.438,485.395,259.013,481.779z M163.94,391.52c13.239-6.012,22.867-18.037,26.475-32.475h39.715
		v110.709C198.84,452.908,174.77,425.223,163.94,391.52z M112.193,344.599c0-12.037,7.215-21.666,18.049-25.272
		c0-1.203,1.203-1.203,2.409-1.203h1.207c1.198,0,1.198-1.207,1.198-1.207c1.202,0,1.202,0,1.202,0c1.207,0,2.405,0,3.612,0
		c0,0,1.202,0,2.409,0c0,0,0,0,1.206,0c0,0,0,1.207,1.198,1.207h1.203h1.206h1.198c0,1.203,1.207,1.203,1.207,1.203h1.202
		l1.207,1.203h1.202c0,0,0,1.198,1.203,1.198c0,0,0,0,1.202,0v1.206c1.207,0,1.207,0,1.207,1.207
		c13.235,10.83,13.235,31.293,0,42.115c-1.207,1.211-1.207,1.211-1.207,1.211c-1.202,0-1.202,0-1.202,1.193h-1.203
		c0,0-1.202,0-1.202,1.215H150.7h-1.202c0,1.195-1.207,1.195-1.207,1.195h-1.198c0,0-1.206,0-1.206,1.193h-1.203
		c-1.198,0-1.198,0-1.198,0c-1.206,0-1.206,0-1.206,0c-1.207,0-2.409,0-2.409,0c-1.207,0-2.405,0-3.612,0h-1.202c0,0,0,0-1.198,0
		l-1.207-1.193h-1.206h-1.203C119.408,366.256,112.193,356.623,112.193,344.599z M298.727,164.077
		c9.633,0,19.26,4.813,24.075,13.235c4.813,8.43,4.813,19.256,0,27.686c-10.831,19.251-37.314,19.251-48.145,0
		C263.831,186.932,277.066,164.077,298.727,164.077z M509.336,344.599c0-27.682-21.656-50.549-48.136-52.954
		c-18.053-50.549-57.763-90.263-109.519-107.11c-8.421-61.379-97.478-61.379-105.903,0c-51.748,15.649-91.465,56.562-109.52,107.11
		c-66.189,3.611-67.396,102.292,0,105.908c14.442,45.727,49.343,84.227,93.871,103.482v44.533c0,19.268,28.883,19.268,28.883,0
		v-34.893c8.426,2.408,18.054,3.604,26.475,3.604v31.289c0,19.268,28.893,19.268,28.893,0v-31.289
		c8.421,0,16.842-1.195,24.066-3.604v34.893c0,19.268,28.883,19.268,28.883,0v-44.533c44.528-19.256,79.429-57.764,93.871-103.482
		C487.68,395.137,509.336,372.264,509.336,344.599z"/>
	<path fill="#00A2C5" d="M635.707,378.281h57.763l-28.879-86.648 M706.71,416.793h-84.243l-15.644,48.143h-50.549l85.45-232.273
		h44.527l86.652,232.273h-50.549L706.71,416.793z"/>
	<polyline fill="#00A2C5" points="969.074,397.537 1000.355,232.663 1048.504,232.663 996.756,464.936 948.607,464.936 
		911.302,309.699 872.79,464.936 824.654,464.936 774.11,232.663 821.043,232.663 852.332,397.537 890.84,232.663 931.761,232.663 	
		"/>
	<path fill="#00A2C5" d="M1194.117,403.564c0-8.428-2.406-15.646-9.625-20.465c-6.023-4.803-18.053-9.617-33.701-14.439
		c-16.844-6.012-30.086-10.83-39.705-16.842c-26.48-13.24-39.721-32.492-39.721-56.562c0-13.239,3.613-24.074,10.826-33.698
		c7.232-9.627,16.852-18.053,30.092-22.868c13.244-6.016,28.893-8.421,44.533-8.421c16.846,0,31.291,2.405,44.516,8.421
		c13.234,6.021,22.863,14.442,30.086,25.273c7.227,10.83,10.834,24.07,10.834,37.309h-48.135c0-10.826-2.406-18.053-9.625-24.074
		c-7.217-6.017-15.639-9.624-27.676-9.624s-21.662,2.409-27.688,8.426c-6.027,4.818-9.635,10.826-9.635,19.255
		c0,7.215,3.607,13.24,10.83,18.05c8.438,6.021,19.256,10.834,33.701,14.446c27.678,8.426,46.93,19.252,60.17,31.293
		c12.041,12.025,18.057,26.471,18.057,44.52c0,20.455-7.223,36.104-22.863,46.939c-15.648,12.02-36.109,18.057-61.371,18.057
		c-18.057,0-33.697-3.611-48.143-9.637c-14.439-7.227-26.484-15.652-33.695-27.678c-8.422-10.83-12.037-24.078-12.037-39.727h48.141
		c0,26.482,15.648,38.529,45.734,38.529c12.029,0,20.475-2.404,26.484-6.029C1191.711,419.223,1194.117,411.99,1194.117,403.564"/>
	<rect x="1375.85" y="231.46" fill="#00A2C5" width="30.088" height="232.282"/>
	<path fill="#00A2C5" d="M1479.34,379.492c0,19.256,4.814,33.693,13.236,45.738c8.434,12.045,20.453,16.855,34.904,16.855
		c15.641,0,27.678-4.811,36.098-16.855c8.434-12.045,13.24-28.885,13.24-49.342c0-19.256-4.807-34.901-13.24-45.731
		c-9.627-12.033-20.457-18.057-36.098-18.057c-14.451,0-26.496,6.024-34.904,16.85
		C1484.158,340.979,1479.34,357.826,1479.34,379.492 M1449.254,375.885c0-16.861,3.604-32.5,9.637-45.736
		c7.219-13.243,16.848-24.074,27.678-31.292c12.027-7.223,26.475-10.834,40.916-10.834c24.059,0,42.115,8.425,56.566,24.074
		c14.445,16.851,22.867,38.512,22.867,64.987v2.41c0,16.846-3.617,31.271-10.834,44.516c-6.008,13.234-14.43,24.061-26.484,31.289
		c-12.025,7.223-26.479,10.834-42.115,10.834c-22.863,0-42.119-7.227-56.564-24.063c-14.439-15.66-21.666-37.313-21.666-63.787
		V375.885z"/>
	<polyline fill="#00A2C5" points="1807.898,256.737 1733.283,256.737 1733.283,463.742 1703.193,463.742 1703.193,256.737 
		1628.582,256.737 1628.582,231.46 1807.898,231.46 	"/>
	<g>
		<g>
			<defs>
				<rect id="SVGID_1_" x="3.875" y="1.595" width="1882.25" height="696.809"/>
			</defs>
			<clipPath id="SVGID_2_">
				<use xlink:href="#SVGID_1_"  overflow="visible"/>
			</clipPath>
			
				<polyline clip-path="url(#SVGID_2_)" fill="none" stroke="#00A2C5" stroke-width="2.88" stroke-linecap="round" stroke-linejoin="round" stroke-miterlimit="10" points="
				19.521,17.24 1875.291,17.24 1875.291,681.561 19.521,681.561 19.521,17.24 55.627,17.24 			"/>
		</g>
	</g>
</g>
</svg>
